<svg xmlns="http://www.w3.org/2000/svg" width="37.834" height="29" viewBox="0 0 37.834 29">
    <path fill="#e52d12" d="M-30 73.527a.551.551 0 0 0-.542.558v1.651h-4.735a1.513 1.513 0 0 0-1.5 1.5v6.249a.551.551 0 0 0 0 .276v17.258a1.513 1.513 0 0 0 1.5 1.5h33.724a1.513 1.513 0 0 0 1.5-1.5V84.178h.52a.551.551 0 1 0 0-1.1h-.52v-5.837a1.513 1.513 0 0 0-1.5-1.5h-5.132v-1.656a.551.551 0 0 0-.161-.4.551.551 0 0 0-.4-.161.551.551 0 0 0-.542.558v1.651h-6.483v-1.648a.551.551 0 0 0-.161-.4.55.55 0 0 0-.4-.161.551.551 0 0 0-.542.558v1.651h-6.483v-1.648a.551.551 0 0 0-.161-.4.551.551 0 0 0-.4-.161.551.551 0 0 0-.542.558v1.651h-6.484v-1.648a.551.551 0 0 0-.161-.4.551.551 0 0 0-.4-.161zm-5.277 3.311h4.735v2.569h-1.284a.551.551 0 0 0-.551.551.551.551 0 0 0 .551.551h1.7a.55.55 0 0 0 .27 0h1.7a.551.551 0 0 0 .551-.551.551.551 0 0 0-.551-.551h-1.284v-2.569h6.484v2.569h-1.285a.551.551 0 0 0-.551.551.551.551 0 0 0 .551.551h1.7a.55.55 0 0 0 .27 0h1.7a.551.551 0 0 0 .551-.551.551.551 0 0 0-.551-.551h-1.284v-2.569h6.483v2.569h-1.284a.551.551 0 0 0-.551.551.551.551 0 0 0 .551.551h3.67a.551.551 0 0 0 .551-.551.551.551 0 0 0-.551-.551h-1.284v-2.569h6.483v2.569H-9.07a.551.551 0 0 0-.551.551.551.551 0 0 0 .551.551h3.67a.551.551 0 0 0 .551-.551.551.551 0 0 0-.551-.551h-1.284v-2.569h5.132a.391.391 0 0 1 .4.4v5.836h-34.525v-5.833a.39.39 0 0 1 .4-.4zm-.4 7.339H-1.15v16.846a.391.391 0 0 1-.4.4h-33.724a.391.391 0 0 1-.4-.4zm4.671 2.57a1.377 1.377 0 0 0-1.368 1.367v2.036a1.377 1.377 0 0 0 1.368 1.368h2.036a1.377 1.377 0 0 0 1.37-1.368v-2.036a1.376 1.376 0 0 0-1.368-1.367zm7.829 0a1.377 1.377 0 0 0-1.368 1.367v2.036a1.377 1.377 0 0 0 1.368 1.368h2.036a1.377 1.377 0 0 0 1.368-1.368v-2.036a1.376 1.376 0 0 0-1.368-1.367zm7.829 0a1.376 1.376 0 0 0-1.367 1.367v2.036a1.377 1.377 0 0 0 1.367 1.368h2.036a1.377 1.377 0 0 0 1.368-1.368v-2.036a1.376 1.376 0 0 0-1.368-1.367zm7.83 0a1.377 1.377 0 0 0-1.368 1.367v2.036a1.377 1.377 0 0 0 1.368 1.368h2.035a1.377 1.377 0 0 0 1.367-1.368v-2.036a1.376 1.376 0 0 0-1.368-1.367zm-23.488 1.1h2.036a.255.255 0 0 1 .267.267v2.036a.255.255 0 0 1-.267.267h-2.036a.255.255 0 0 1-.267-.267v-2.036a.255.255 0 0 1 .267-.267zm7.829 0h2.036a.255.255 0 0 1 .267.267v2.036a.255.255 0 0 1-.267.267h-2.036a.255.255 0 0 1-.267-.267v-2.036a.255.255 0 0 1 .267-.267zm7.829 0h2.036a.255.255 0 0 1 .267.267v2.036a.255.255 0 0 1-.267.267h-2.036a.255.255 0 0 1-.267-.267v-2.036a.255.255 0 0 1 .267-.267zm7.83 0h2.035a.255.255 0 0 1 .267.267v2.036a.255.255 0 0 1-.267.267h-2.036a.255.255 0 0 1-.267-.267v-2.036a.255.255 0 0 1 .267-.267zm-23.488 6.239a1.377 1.377 0 0 0-1.368 1.368v2.036a1.377 1.377 0 0 0 1.368 1.368h2.036a1.377 1.377 0 0 0 1.37-1.368v-2.036a1.377 1.377 0 0 0-1.368-1.368zm7.829 0a1.377 1.377 0 0 0-1.368 1.368v2.036a1.377 1.377 0 0 0 1.368 1.368h2.036a1.377 1.377 0 0 0 1.368-1.368v-2.036a1.377 1.377 0 0 0-1.368-1.368zm7.829 0a1.377 1.377 0 0 0-1.367 1.368v2.036a1.377 1.377 0 0 0 1.367 1.368h2.036a1.377 1.377 0 0 0 1.368-1.368v-2.036a1.377 1.377 0 0 0-1.368-1.368zm7.83 0a1.377 1.377 0 0 0-1.368 1.368v2.036a1.377 1.377 0 0 0 1.368 1.368h2.035a1.377 1.377 0 0 0 1.367-1.368v-2.036a1.377 1.377 0 0 0-1.368-1.368zm-23.488 1.1h2.036a.255.255 0 0 1 .267.267v2.037a.255.255 0 0 1-.267.267h-2.036a.255.255 0 0 1-.267-.267v-2.036a.255.255 0 0 1 .267-.267zm7.829 0h2.036a.255.255 0 0 1 .267.267v2.037a.255.255 0 0 1-.267.267h-2.036a.255.255 0 0 1-.267-.267v-2.036a.255.255 0 0 1 .267-.267zm7.829 0h2.036a.255.255 0 0 1 .267.267v2.037a.255.255 0 0 1-.267.267h-2.036a.255.255 0 0 1-.267-.267v-2.036a.255.255 0 0 1 .267-.267zm7.83 0h2.035a.255.255 0 0 1 .267.267v2.037a.255.255 0 0 1-.267.267h-2.036a.255.255 0 0 1-.267-.267v-2.036a.255.255 0 0 1 .267-.267z" transform="translate(36.795 -73.527)"/>
</svg>
