<svg xmlns="http://www.w3.org/2000/svg" width="39" height="39" viewBox="0 0 39 39">
    <path fill="#fbbb00" d="M8.643 151.3l-1.358 5.068-4.962.1a19.534 19.534 0 0 1-.144-18.209l4.417.81 1.935 4.391a11.638 11.638 0 0 0 .109 7.835z" transform="translate(0 -127.736)"/>
    <path fill="#518ef8" d="M280.359 208.176a19.493 19.493 0 0 1-6.951 18.85l-5.564-.284-.787-4.916a11.622 11.622 0 0 0 5-5.935h-10.429v-7.714h18.731z" transform="translate(-241.699 -192.319)"/>
    <path fill="#28b446" d="M59.892 320.546a19.506 19.506 0 0 1-29.384-5.966l6.319-5.173a11.6 11.6 0 0 0 16.712 5.938z" transform="translate(-28.185 -285.841)"/>
    <path fill="#f14336" d="M58.39 4.489l-6.317 5.172a11.6 11.6 0 0 0-17.1 6.072l-6.353-5.2a19.5 19.5 0 0 1 29.77-6.044z" transform="translate(-26.444)"/>
</svg>
