<svg xmlns="http://www.w3.org/2000/svg" width="15.353" height="15.064" viewBox="0 0 15.353 15.064">
    <defs>
        <style>
            .cls-1{fill:#1a1a1a;stroke:#1a1a1a;stroke-width:.3px}
        </style>
    </defs>
    <g id="humidity_1_" transform="translate(.15 .15)">
        <path id="Path_8" d="M84.2 271.568a.29.29 0 1 0 0-.577 2.447 2.447 0 0 1-2.562-2.307 3.544 3.544 0 0 1 .755-2.023.271.271 0 0 0-.085-.4.343.343 0 0 0-.445.076 4.1 4.1 0 0 0-.863 2.347 3.059 3.059 0 0 0 3.2 2.884z" class="cls-1" transform="translate(-79.079 -258.534)"/>
        <circle id="Ellipse_1" cx=".5" cy=".5" r=".5" class="cls-1" transform="translate(1.393 12.764)"/>
        <path id="Path_9" d="M26.126 0a.32.32 0 0 0-.3.2A30.778 30.778 0 0 1 22.2 6.831a5.688 5.688 0 0 0-1.2 3.32 4.259 4.259 0 0 0 .566 2.11.338.338 0 0 0 .431.124.275.275 0 0 0 .14-.385 3.674 3.674 0 0 1-.5-1.846 5.14 5.14 0 0 1 1.087-3 30.074 30.074 0 0 0 3.4-6.06 33.779 33.779 0 0 0 2.564 4.866c.273.421.553.823.834 1.2a5.14 5.14 0 0 1 1.087 3 4.288 4.288 0 0 1-4.484 4.037 4.89 4.89 0 0 1-2.125-.49.339.339 0 0 0-.434.117.274.274 0 0 0 .13.391 5.59 5.59 0 0 0 2.429.551A5.175 5.175 0 0 0 30.8 12.04a4.6 4.6 0 0 0 1.089.13 3.977 3.977 0 0 0 4.164-3.749A4.991 4.991 0 0 0 34.967 5.5 20.587 20.587 0 0 1 32.2.209V.2a.333.333 0 0 0-.609 0 21.423 21.423 0 0 1-2.6 5.072A36.169 36.169 0 0 1 26.429.2a.319.319 0 0 0-.3-.2zm5.764 1.167a20.027 20.027 0 0 0 2.551 4.663 4.435 4.435 0 0 1 .972 2.591 3.365 3.365 0 0 1-3.523 3.172 3.9 3.9 0 0 1-.862-.1 4.182 4.182 0 0 0 .221-1.346 5.688 5.688 0 0 0-1.2-3.32c-.238-.315-.476-.653-.709-1.006a20.065 20.065 0 0 0 2.55-4.654z" class="cls-1" transform="translate(-21.001 -.001)"/>
    </g>
</svg>
