<svg xmlns="http://www.w3.org/2000/svg" width="25.574" height="25.574" viewBox="0 0 25.574 25.574">
    <defs>
        <style>
            .cls-1{fill:#fff}
        </style>
    </defs>
    <g id="iconfinder_38-instagram_1161953" transform="translate(-3.4 -4.8)">
        <path id="Path_27" d="M22 16.7a6.6 6.6 0 1 0 6.6 6.6 6.612 6.612 0 0 0-6.6-6.6zm0 10.828a4.228 4.228 0 1 1 4.228-4.228A4.247 4.247 0 0 1 22 27.528z" class="cls-1" transform="translate(-5.813 -5.764)"/>
        <circle id="Ellipse_2" cx="1.495" cy="1.495" r="1.495" class="cls-1" transform="translate(21.549 9.286)"/>
        <path id="Path_28" d="M26.912 6.914A7.343 7.343 0 0 0 21.5 4.8H10.876A7.063 7.063 0 0 0 3.4 12.276v10.57a7.419 7.419 0 0 0 2.166 5.517 7.525 7.525 0 0 0 5.362 2.011h10.518a7.613 7.613 0 0 0 5.414-2.011 7.382 7.382 0 0 0 2.114-5.463V12.276a7.391 7.391 0 0 0-2.062-5.362zM26.705 22.9a5.038 5.038 0 0 1-1.5 3.764A5.33 5.33 0 0 1 21.446 28H10.928a5.33 5.33 0 0 1-3.764-1.341 5.183 5.183 0 0 1-1.392-3.815V12.276a5.14 5.14 0 0 1 1.392-3.764 5.243 5.243 0 0 1 3.764-1.341h10.621a5.14 5.14 0 0 1 3.764 1.392 5.321 5.321 0 0 1 1.392 3.712V22.9z" class="cls-1"/>
    </g>
</svg>
