<svg xmlns="http://www.w3.org/2000/svg" id="linkedin" width="15.839" height="15.839" viewBox="0 0 15.839 15.839">
    <defs>
        <style>
            .cls-1{fill:#1a1a1a}
        </style>
    </defs>
    <path id="Path_21" d="M18.722 18.414V12.6c0-2.842-.612-5.031-3.934-5.031a3.449 3.449 0 0 0-3.106 1.707h-.046V7.839H8.489v10.575h3.28v-5.236c0-1.379.261-2.712 1.969-2.712 1.682 0 1.707 1.573 1.707 2.8v5.148z" class="cls-1" transform="translate(-2.887 -2.575)"/>
    <path id="Path_22" d="M.4 7.977h3.28v10.575H.4z" class="cls-1" transform="translate(-.135 -2.713)"/>
    <path id="Path_23" d="M1.9 0a1.911 1.911 0 1 0 1.9 1.9A1.9 1.9 0 0 0 1.9 0z" class="cls-1"/>
</svg>
