<svg xmlns="http://www.w3.org/2000/svg" id="linkedin" width="22.698" height="22.699" viewBox="0 0 22.698 22.699">
    <defs>
        <style>
            .cls-1{fill:#fff}
        </style>
    </defs>
    <path id="Path_21" d="M23.153 23.109h.006v-8.325c0-4.072-.877-7.21-5.638-7.21a4.942 4.942 0 0 0-4.452 2.447H13V7.954H8.489v15.154h4.7V15.6c0-1.976.375-3.886 2.821-3.886 2.411 0 2.447 2.255 2.447 4.013v7.378z" class="cls-1" transform="translate(-.46 -.411)"/>
    <path id="Path_22" d="M.4 7.977h4.7v15.154H.4z" class="cls-1" transform="translate(-.021 -.433)"/>
    <path id="Path_23" d="M2.726 0a2.738 2.738 0 1 0 2.725 2.726A2.727 2.727 0 0 0 2.726 0z" class="cls-1"/>
</svg>
