<svg xmlns="http://www.w3.org/2000/svg" width="12.929" height="17.43" viewBox="0 0 12.929 17.43">
    <defs>
        <style>
            .cls-1{stroke:#1a1a1a;stroke-width:.2px}
        </style>
    </defs>
    <g id="location" transform="translate(-47.98 .1)">
        <g id="Group_7" transform="translate(48.08)">
            <g id="Group_6">
                <path id="Path_15" d="M54.445 0a6.372 6.372 0 0 0-6.365 6.365 7.343 7.343 0 0 0 .54 2.45 10.264 10.264 0 0 0 .736 1.376l4.363 6.609a.83.83 0 0 0 1.45 0l4.364-6.613a10.222 10.222 0 0 0 .736-1.376 7.342 7.342 0 0 0 .539-2.45A6.372 6.372 0 0 0 54.445 0zm5.135 8.525a9.4 9.4 0 0 1-.671 1.254l-4.364 6.613c-.086.131-.113.131-.2 0l-4.364-6.613a9.409 9.409 0 0 1-.671-1.255 6.665 6.665 0 0 1-.481-2.16 5.616 5.616 0 1 1 11.232 0 6.671 6.671 0 0 1-.481 2.161z" class="cls-1" transform="translate(-48.08)"/>
                <path id="Path_16" d="M115.45 64.008a3.37 3.37 0 1 0 3.37 3.37 3.373 3.373 0 0 0-3.37-3.37zm0 5.99a2.621 2.621 0 1 1 2.621-2.621A2.624 2.624 0 0 1 115.45 70z" class="cls-1" transform="translate(-109.085 -61.012)"/>
            </g>
        </g>
    </g>
</svg>
