<svg xmlns="http://www.w3.org/2000/svg" width="22.58" height="16.953" viewBox="0 0 22.58 16.953">
    <path fill="#fff" d="M27.508 36.375H10.093a2.621 2.621 0 0 1-2.582-2.652v-11.65a2.621 2.621 0 0 1 2.582-2.651h17.415a2.621 2.621 0 0 1 2.582 2.651v11.65a2.621 2.621 0 0 1-2.582 2.652zm-18.93-13.4v10.75a1.553 1.553 0 0 0 1.515 1.585h17.415a1.553 1.553 0 0 0 1.515-1.585V22.973L18.8 28.562zm.027-1.2l10.2 5.573L29 21.772a1.537 1.537 0 0 0-1.488-1.283H10.093a1.537 1.537 0 0 0-1.487 1.283z" transform="translate(-7.511 -19.422)"/>
</svg>
