<svg xmlns="http://www.w3.org/2000/svg" width="17.29" height="14.048" viewBox="0 0 17.29 14.048">
    <g>
        <path fill="#1a1a1a" d="M17.29 49.663a7.39 7.39 0 0 1-2.042.56 3.525 3.525 0 0 0 1.559-1.959 7.084 7.084 0 0 1-2.248.858 3.544 3.544 0 0 0-6.132 2.424 3.65 3.65 0 0 0 .082.808A10.033 10.033 0 0 1 1.2 48.646a3.546 3.546 0 0 0 1.089 4.738 3.5 3.5 0 0 1-1.6-.437v.039a3.561 3.561 0 0 0 2.84 3.483 3.538 3.538 0 0 1-.929.117 3.135 3.135 0 0 1-.671-.061 3.578 3.578 0 0 0 3.312 2.469 7.122 7.122 0 0 1-4.393 1.512A6.64 6.64 0 0 1 0 60.458a9.979 9.979 0 0 0 5.438 1.591 10.019 10.019 0 0 0 10.089-10.087c0-.157-.005-.308-.013-.458a7.072 7.072 0 0 0 1.776-1.841z" transform="translate(0 -48)"/>
    </g>
</svg>
