<svg xmlns="http://www.w3.org/2000/svg" width="24.778" height="20.132" viewBox="0 0 24.778 20.132">
    <g>
        <path fill="#fff" d="M24.778 50.383a10.591 10.591 0 0 1-2.927.8 5.051 5.051 0 0 0 2.235-2.808 10.152 10.152 0 0 1-3.221 1.23 5.079 5.079 0 0 0-8.787 3.474 5.23 5.23 0 0 0 .118 1.158 14.378 14.378 0 0 1-10.47-5.313 5.081 5.081 0 0 0 1.561 6.789 5.017 5.017 0 0 1-2.3-.626v.056a5.1 5.1 0 0 0 4.07 4.991 5.07 5.07 0 0 1-1.332.167 4.493 4.493 0 0 1-.962-.087 5.128 5.128 0 0 0 4.747 3.539 10.207 10.207 0 0 1-6.3 2.167A9.516 9.516 0 0 1 0 65.853a14.3 14.3 0 0 0 7.793 2.28 14.358 14.358 0 0 0 14.458-14.456c0-.225-.008-.441-.019-.657a10.134 10.134 0 0 0 2.546-2.637z" transform="translate(0 -48)"/>
    </g>
</svg>
