<svg xmlns="http://www.w3.org/2000/svg" width="16.667" height="16.747" viewBox="0 0 16.667 16.747">
    <path fill-rule="evenodd" d="M14.489 2.434A8.3 8.3 0 0 0 1.427 12.447l-1.177 4.3 4.4-1.154A8.29 8.29 0 0 0 8.615 16.6a8.3 8.3 0 0 0 5.87-14.17zM8.618 15.2a6.889 6.889 0 0 1-3.518-.96l-.252-.15-2.611.685.7-2.545-.164-.261A6.9 6.9 0 1 1 8.618 15.2zm3.782-5.164c-.207-.1-1.227-.605-1.417-.675s-.328-.1-.466.1-.536.675-.657.813-.242.156-.449.052A5.664 5.664 0 0 1 7.745 9.3a6.255 6.255 0 0 1-1.153-1.436c-.121-.208 0-.309.091-.423a5.866 5.866 0 0 0 .517-.709.381.381 0 0 0-.017-.363c-.052-.1-.466-1.124-.639-1.54s-.339-.35-.467-.356-.259-.007-.4-.007a.762.762 0 0 0-.553.26A2.326 2.326 0 0 0 4.4 6.455 4.034 4.034 0 0 0 5.248 8.6a9.243 9.243 0 0 0 3.542 3.131 11.869 11.869 0 0 0 1.182.437 2.843 2.843 0 0 0 1.306.082 2.136 2.136 0 0 0 1.4-.986 1.733 1.733 0 0 0 .121-.986c-.051-.086-.19-.138-.399-.242zm0 0" transform="translate(-.25)"/>
</svg>
